<?xml version="1.0" encoding="UTF-8" standalone="no"?>
<!-- Created with Inkscape (http://www.inkscape.org/) -->

<svg
   width="270.93332mm"
   height="98.752853mm"
   viewBox="0 0 270.93332 98.752853"
   version="1.1"
   id="svg1"
   xmlns="http://www.w3.org/2000/svg"
   xmlns:svg="http://www.w3.org/2000/svg">
  <defs
     id="defs1" />
  <g
     id="layer1">
    <g
       id="g32"
       transform="matrix(1.3447878,0,0,1.3447878,-26.532689,-46.156076)">
      <path
         fill="none"
         stroke-width="0.9782"
         stroke-linecap="butt"
         stroke-linejoin="miter"
         stroke="#ffffff"
         stroke-opacity="1"
         stroke-miterlimit="3.8637"
         d="m 54.308594,98.20105 c 0,1.503906 1.21875,2.72266 2.722656,2.72266 1.5,0 2.71875,-1.218754 2.71875,-2.72266 0,-1.503906 -1.21875,-2.722656 -2.71875,-2.722656 -1.503906,0 -2.722656,1.21875 -2.722656,2.722656 z m 0,0"
         id="path1"
         transform="matrix(1,0,0,-1,0,141.7323)" />
      <path
         fill="none"
         stroke-width="0.9782"
         stroke-linecap="butt"
         stroke-linejoin="miter"
         stroke="#ffffff"
         stroke-opacity="1"
         stroke-miterlimit="3.8637"
         d="m 25.136719,69.341675 c 0,1.503906 1.21875,2.722656 2.722656,2.722656 1.503906,0 2.722656,-1.21875 2.722656,-2.722656 0,-1.5 -1.21875,-2.71875 -2.722656,-2.71875 -1.503906,0 -2.722656,1.21875 -2.722656,2.71875 z m 0,0"
         id="path3"
         transform="matrix(1,0,0,-1,0,141.7323)" />
      <path
         fill="none"
         stroke-width="0.8626"
         stroke-linecap="butt"
         stroke-linejoin="miter"
         stroke="#ffffff"
         stroke-opacity="1"
         stroke-miterlimit="3.8637"
         d="m 30.640625,69.505738 h 9.371094 l 4.191406,-4.367188 v -5.621094 l 3.945313,-3.621093 h 5.40625 l 7.539062,7.542968"
         id="path4"
         transform="matrix(1,0,0,-1,0,141.7323)" />
      <path
         fill="none"
         stroke-width="0.9782"
         stroke-linecap="butt"
         stroke-linejoin="miter"
         stroke="#ffffff"
         stroke-opacity="1"
         stroke-miterlimit="3.8637"
         d="m 54.105469,39.95105 c 0,1.503906 1.222656,2.722656 2.722656,2.722656 1.503906,0 2.722656,-1.21875 2.722656,-2.722656 0,-1.503906 -1.21875,-2.722656 -2.722656,-2.722656 -1.5,0 -2.722656,1.21875 -2.722656,2.722656 z m 0,0"
         id="path5"
         transform="matrix(1,0,0,-1,0,141.7323)" />
      <path
         fill-rule="nonzero"
         fill="#1a1a18"
         fill-opacity="1"
         d="M 86.359375,71.261719 V 51.625 h 4.835937 c 1.972657,0 3.835938,-0.08203 5.558594,1.035156 1.695313,1.089844 2.722656,2.976563 2.722656,4.941406 0,1.9375 -0.832031,3.800782 -2.445312,5.023438 -1.695312,1.300781 -4.085938,1.195312 -6.113281,1.195312 h -0.75 v 7.441407 z m 4.503906,-10.976563 c 0.945313,0 2.027344,0.05078 2.945313,-0.210937 1.113281,-0.34375 1.863281,-1.277344 1.863281,-2.417969 0,-1.195312 -0.835937,-2.046875 -1.976563,-2.339844 -0.832031,-0.214844 -2,-0.160156 -2.832031,-0.160156 h -0.695312 v 5.128906 z m 0,0"
         id="path7" />
      <path
         fill-rule="nonzero"
         fill="#1a1a18"
         fill-opacity="1"
         d="m 101.92188,51.625 h 5.94921 c 1.94532,0.02344 3.77735,0.128906 5.33594,1.378906 1.47266,1.167969 2.39063,3.003906 2.39063,4.835938 0,1.4375 -0.69532,3.214844 -1.69532,4.277344 -1,1.039062 -2.2539,1.59375 -3.64062,1.890624 l 5.55859,7.253907 h -4.69922 l -5.39062,-7.523438 v 7.523438 h -3.80859 z m 5.89453,9.351562 c 1,0 2.27734,-0.132812 3.02734,-0.824218 0.61328,-0.554688 0.94531,-1.300782 0.94531,-2.125 0,-0.851563 -0.39062,-1.699219 -1.10937,-2.207032 -0.89063,-0.636718 -1.78125,-0.6875 -2.83594,-0.664062 h -2.11328 v 5.820312 z m 0,0"
         id="path8" />
      <path
         fill-rule="nonzero"
         fill="#1a1a18"
         fill-opacity="1"
         d="m 138.38672,61.535156 c 0,5.683594 -4.86328,10.203125 -10.70313,10.203125 -5.83593,0 -10.69921,-4.519531 -10.69921,-10.203125 0,-5.714844 4.78125,-10.285156 10.69921,-10.285156 5.92188,0 10.70313,4.570312 10.70313,10.285156 z m -17.59375,-0.08203 c 0,3.644531 3.14062,6.75 6.89062,6.75 3.75391,0 6.89453,-3.105469 6.89453,-6.75 0,-3.691406 -3.05859,-6.667969 -6.89453,-6.667969 -3.83203,0 -6.89062,2.976563 -6.89062,6.667969"
         id="path9" />
      <path
         fill-rule="nonzero"
         fill="#1a1a18"
         fill-opacity="1"
         d="m 141.38672,51.625 h 4.30469 c 3.05859,0.02344 6.19921,0.316406 8.61718,2.28125 2.25,1.808594 3.53125,4.839844 3.53125,7.628906 0,2.738282 -1.30859,5.660156 -3.53125,7.464844 -2.47265,2.019531 -5.39062,2.261719 -8.53125,2.261719 h -4.39062 z m 4.27734,16.101562 c 2.14063,0 4.11328,-0.07812 5.89453,-1.328124 1.58203,-1.171876 2.47266,-2.949219 2.47266,-4.863282 0,-2.046875 -0.94531,-4.039062 -2.72266,-5.207031 -1.72265,-1.117187 -3.83593,-1.171875 -5.83593,-1.171875 h -0.28125 v 12.570312 z m 0,0"
         id="path10" />
      <path
         fill-rule="nonzero"
         fill="#1a1a18"
         fill-opacity="1"
         d="M 160.83984,51.625 H 171.875 v 3.53125 h -7.22656 v 4.519531 h 6.91797 v 3.53125 h -6.91797 v 4.519531 h 7.22656 v 3.535157 h -11.03516 z m 0,0"
         id="path11" />
      <path
         fill-rule="nonzero"
         fill="#1a1a18"
         fill-opacity="1"
         d="m 175.29297,51.625 h 3.80469 v 16.101562 h 6.28125 v 3.535157 h -10.08594 z m 0,0"
         id="path12" />
      <path
         fill-rule="nonzero"
         fill="#1a1a18"
         fill-opacity="1"
         d="m 187.51953,51.625 h 11.03516 v 3.53125 h -7.22657 v 4.519531 h 6.91407 v 3.53125 h -6.91407 v 4.519531 h 7.22657 v 3.535157 h -11.03516 z m 0,0"
         id="path13" />
      <path
         fill-rule="nonzero"
         fill="#1a1a18"
         fill-opacity="1"
         d="m 221.08594,65.917969 c -1.55469,3.5625 -5.5586,5.820312 -9.53125,5.820312 -5.89063,0 -10.64063,-4.703125 -10.64063,-10.308593 0,-5.554688 4.8086,-10.179688 10.53125,-10.179688 4.11328,0 8.16797,2.285156 9.75391,5.980469 h -4.33594 c -1.27734,-1.488281 -3.33594,-2.445313 -5.39062,-2.445313 -3.75391,0 -6.75391,3.109375 -6.75391,6.777344 0,3.480469 3.11328,6.640625 6.78125,6.640625 2.02734,0 3.77734,-0.875 5.17187,-2.285156 z m 0,0"
         id="path14" />
      <path
         fill-rule="nonzero"
         fill="#1a1a18"
         fill-opacity="1"
         d="m 87.984375,77.921875 h 3.035156 l 4.011719,9.152344 h 0.03906 l 1.941407,-9.152344 h 2.664062 L 97.007812,90.507812 H 94.03125 l -4.070312,-9.152343 h -0.03906 l -1.941406,9.152343 h -2.664063 z m 0,0"
         id="path15" />
      <path
         fill-rule="nonzero"
         fill="#1a1a18"
         fill-opacity="1"
         d="m 101.97266,85.792969 c 0.60937,-2.855469 3.73828,-5.050781 6.83203,-5.050781 3.05469,0 5.26562,2.128906 4.65234,5.019531 -0.65625,3.09375 -3.79297,5.050781 -6.78906,5.050781 -3.21094,0 -5.26563,-2.3125 -4.69531,-5.019531 z m 8.88672,0.01953 c 0.36328,-1.71875 -0.87891,-2.992188 -2.4961,-2.992188 -1.34375,0 -3.38281,1.003907 -3.80078,2.972657 -0.37891,1.789062 0.91016,2.945312 2.54297,2.945312 1.89062,0 3.4375,-1.429687 3.75391,-2.925781"
         id="path16" />
      <path
         fill-rule="nonzero"
         fill="#1a1a18"
         fill-opacity="1"
         d="m 118.30469,81.066406 h 2.375 l -0.17578,0.835938 h 0.0352 c 0.61719,-0.613282 1.21875,-1.160156 2.5625,-1.160156 h 0.21485 l -0.46875,2.195312 c -2.3711,0.08594 -2.71094,1.703125 -2.83203,2.261719 l -1.125,5.308593 h -2.58594 z m 0,0"
         id="path17" />
      <path
         fill-rule="nonzero"
         fill="#1a1a18"
         fill-opacity="1"
         d="m 126.69141,83.074219 h -1.26172 l 0.42187,-2.007813 h 1.26563 l 0.66797,-3.144531 h 2.58593 l -0.66406,3.144531 h 1.55469 l -0.42969,2.007813 h -1.55078 l -1.57812,7.433593 h -2.58985 z m 0,0"
         id="path18" />
      <path
         fill-rule="nonzero"
         fill="#1a1a18"
         fill-opacity="1"
         d="m 135.13672,77.921875 h 2.58984 l -0.80859,3.808594 c 0.38672,-0.269531 1.39453,-0.988281 3.00781,-0.988281 1.20703,0 2.42578,0.578124 3.01953,1.445312 0.65625,0.953125 0.36719,2.300781 0.22266,2.996094 l -1.12891,5.324218 h -2.58984 l 1.02734,-4.832031 c 0.21485,-1.019531 0.52735,-2.855469 -1.61328,-2.855469 -2.17969,0 -2.62109,2.089844 -2.78906,2.890626 l -1.01953,4.796874 h -2.58594 z m 0,0"
         id="path19" />
      <path
         fill-rule="nonzero"
         fill="#1a1a18"
         fill-opacity="1"
         d="m 161.61328,77.921875 h 2.08203 l 3.35547,12.585937 h -2.93359 l -0.84766,-3.25 h -5.15625 l -2.22656,3.25 h -2.9375 z m -2.14062,7.144531 h 3.30859 l -0.81641,-3.863281 h -0.0352 z m 0,0"
         id="path20" />
      <path
         fill-rule="nonzero"
         fill="#1a1a18"
         fill-opacity="1"
         d="m 172.13281,83.074219 h -0.91406 l 0.42578,-2.007813 h 0.91406 c 0.19141,-0.628906 0.55469,-1.78125 1.82032,-2.636718 0.71093,-0.488282 1.625,-0.761719 2.42187,-0.761719 h 0.71875 l -0.47266,2.226562 c -0.99609,0.01953 -1.58203,0.03516 -1.90234,1.171875 h 1.51563 l -0.42579,2.007813 h -1.51562 l -1.57813,7.433593 h -2.58593 z m 0,0"
         id="path21" />
      <path
         fill-rule="nonzero"
         fill="#1a1a18"
         fill-opacity="1"
         d="m 180.16406,81.066406 h 2.375 l -0.17969,0.835938 h 0.0391 c 0.61718,-0.613282 1.21875,-1.160156 2.55859,-1.160156 h 0.21484 l -0.46875,2.195312 c -2.36718,0.08594 -2.71093,1.703125 -2.82812,2.261719 l -1.125,5.308593 h -2.58984 z m 0,0"
         id="path22" />
      <path
         fill-rule="nonzero"
         fill="#1a1a18"
         fill-opacity="1"
         d="m 188.33594,81.066406 h 2.58203 l -2,9.441406 h -2.58594 z M 189,77.921875 h 2.58594 l -0.44141,2.074219 h -2.58203 z m 0,0"
         id="path23" />
      <path
         fill-rule="nonzero"
         fill="#1a1a18"
         fill-opacity="1"
         d="m 204.625,87.429688 c -1.32422,2.105468 -3.59766,3.382812 -6.125,3.382812 -2.76563,0 -5.32813,-1.9375 -4.66406,-5.066406 0.61718,-2.890625 3.80468,-5.003906 6.77734,-5.003906 1.36719,0 4.20703,0.546874 4.69922,3.453124 h -2.91797 c -0.21094,-0.472656 -0.62109,-1.375 -2.21875,-1.375 -1.57422,0 -3.34766,1.019532 -3.75781,2.957032 -0.34375,1.617187 0.67578,2.960937 2.62109,2.960937 0.85547,0 1.78516,-0.359375 2.66797,-1.308593 z m 0,0"
         id="path24" />
      <path
         fill-rule="nonzero"
         fill="#1a1a18"
         fill-opacity="1"
         d="m 218.61719,90.507812 h -2.375 l 0.2539,-1.171874 c -1,0.847656 -2.72656,1.476562 -4.08984,1.476562 -2.77734,0 -4.83984,-1.9375 -4.17188,-5.085938 0.61329,-2.890624 3.46875,-4.984374 6.46485,-4.984374 2.19922,0 3.21094,1.378906 3.25781,1.515624 h 0.0391 L 218.25,81.066406 h 2.37109 z m -3.96875,-7.6875 c -2.1211,0 -3.55078,1.597657 -3.84766,3.007813 -0.33984,1.601563 0.74609,2.910156 2.59375,2.910156 1.78516,0 3.41016,-1.222656 3.77734,-2.976562 0.41797,-1.957031 -0.98828,-2.941407 -2.52343,-2.941407"
         id="path25" />
      <path
         fill-rule="evenodd"
         fill="#e31414"
         fill-opacity="1"
         d="m 75.609375,51.949219 -13.558594,-0.0078 c 0,0 -1.105469,-0.628906 -1.222656,-2.042968 -0.152344,-1.902344 2.070313,-3.253907 2.726563,-5.03125 2.117187,-5.691407 -2.210938,-10.660157 -7.1875,-10.542969 -3.597657,0.08594 -7.488282,3.097656 -7.398438,7.097656 0.144531,6.234375 3.285156,5.429687 3.363281,8.496094 0.02344,1 -1.199219,2.027343 -1.199219,2.027343 l -13.589843,-0.0039 v 13.242188 c 0,0 -0.691407,1.242187 -2.011719,1.4375 -2.535156,0.371094 -4.375,-3.945313 -9.128906,-3.277344 -3.675782,0.519531 -6.714844,3.691406 -6.671875,7.652344 0.04297,3.902344 2.648437,6.882812 6.640625,7.480468 4.785156,0.722657 6.023437,-3.339843 9.082031,-3.230468 1.253906,0.04297 1.941406,1.042968 1.941406,1.042968 l 0.0039,13.964844 13.066406,0.0039 c 0,0 1.078125,-0.195312 1.445312,1 1.117188,3.65625 -4.320312,5.042969 -2.910156,10.621095 0.960938,3.82031 4.324219,6.25781 8.238281,5.82812 3.921875,-0.42969 6.472657,-3.34765 6.769531,-7.51953 0.285157,-3.945309 -3.925781,-5.820309 -3.3125,-8.261716 0.207032,-0.828125 1.3125,-1.761719 1.3125,-1.761719 l 13.589844,-0.02344 -0.08594,-12.957031 c 0,0 -0.628907,-0.949219 -1.53125,-1.117188 -2.882813,-0.546875 -2.941407,2.929688 -8.03125,3.234375 -4.519531,0.273438 -8.09375,-3.464843 -7.964844,-7.816406 0.105469,-3.460937 2.328125,-6.246094 5.410156,-7.046875 6.742188,-1.761719 7.617188,4.230469 11.160157,2.710938 0.566406,-0.246094 1.042968,-1.191407 1.042968,-1.191407 z m 0,0"
         id="path26" />
      <path
         fill="none"
         stroke-width="0.9748"
         stroke-linecap="butt"
         stroke-linejoin="miter"
         stroke="#ffffff"
         stroke-opacity="1"
         stroke-miterlimit="3.8637"
         d="m 53.824219,99.568238 c 0,1.496092 1.214843,2.710932 2.710937,2.710932 1.5,0 2.714844,-1.21484 2.714844,-2.710932 0,-1.5 -1.214844,-2.714844 -2.714844,-2.714844 -1.496094,0 -2.710937,1.214844 -2.710937,2.714844 z m 0,0"
         id="path27"
         transform="matrix(1,0,0,-1,0,141.7323)" />
      <path
         fill="none"
         stroke-width="0.8595"
         stroke-linecap="butt"
         stroke-linejoin="miter"
         stroke="#ffffff"
         stroke-opacity="1"
         stroke-miterlimit="3.8637"
         d="m 56.578125,44.980469 v 8.910156 l 5.484375,5.445312 h 13.550781"
         id="path28" />
      <path
         fill="none"
         stroke-width="0.9748"
         stroke-linecap="butt"
         stroke-linejoin="miter"
         stroke="#ffffff"
         stroke-opacity="1"
         stroke-miterlimit="3.8637"
         d="m 24.761719,70.810425 c 0,1.5 1.214843,2.714844 2.710937,2.714844 1.496094,0 2.710938,-1.214844 2.710938,-2.714844 0,-1.496094 -1.214844,-2.710937 -2.710938,-2.710937 -1.496094,0 -2.710937,1.214843 -2.710937,2.710937 z m 0,0"
         id="path29"
         transform="matrix(1,0,0,-1,0,141.7323)" />
      <path
         fill="none"
         stroke-width="0.8595"
         stroke-linecap="butt"
         stroke-linejoin="miter"
         stroke="#ffffff"
         stroke-opacity="1"
         stroke-miterlimit="3.8637"
         d="m 30.245113,70.755029 h 9.128571 l 4.081323,4.353349 v 5.60777 l 3.840797,3.603041 h 5.26105 l 7.349437,-7.51871"
         id="path30" />
      <path
         fill="none"
         stroke-width="0.9748"
         stroke-linecap="butt"
         stroke-linejoin="miter"
         stroke="#ffffff"
         stroke-opacity="1"
         stroke-miterlimit="3.8637"
         d="m 53.625,41.525269 c 0,1.5 1.214844,2.714844 2.710938,2.714844 1.5,0 2.710937,-1.214844 2.710937,-2.714844 0,-1.496094 -1.210937,-2.710938 -2.710937,-2.710938 -1.496094,0 -2.710938,1.214844 -2.710938,2.710938 z m 0,0"
         id="path31"
         transform="matrix(1,0,0,-1,0,141.7323)" />
      <path
         fill="none"
         stroke-width="0.86613"
         stroke-linecap="butt"
         stroke-linejoin="miter"
         stroke="#ffffff"
         stroke-opacity="1"
         stroke-miterlimit="3.8637"
         d="m 56.225507,97.388917 v -8.90804 L 61.391435,83.4352 h 14.168608"
         id="path32" />
    </g>
  </g>
</svg>
